<svg xmlns="http://www.w3.org/2000/svg" width="176.95999999999998" height="35" viewBox="0 0 176.95999999999998 35"><rect class="svg__rect" x="0" y="0" width="107.22999999999999" height="35" fill="#98C379"/><rect class="svg__rect" x="105.22999999999999" y="0" width="71.73" height="35" fill="#61AFEF"/><path class="svg__text" d="M15.00 22L13.46 22L16.68 13.47L18.01 13.47L21.24 22L19.69 22L18.99 20.01L15.69 20.01L15.00 22ZM17.34 15.28L16.10 18.82L18.58 18.82L17.34 15.28ZM28.30 22L25.19 22L25.19 13.47L28.12 13.47Q29.56 13.47 30.32 14.05Q31.07 14.63 31.07 15.78L31.07 15.78Q31.07 16.36 30.76 16.83Q30.44 17.30 29.83 17.56L29.83 17.56Q30.52 17.75 30.90 18.26Q31.28 18.78 31.28 19.51L31.28 19.51Q31.28 20.71 30.51 21.36Q29.74 22 28.30 22L28.30 22ZM26.67 18.15L26.67 20.82L28.32 20.82Q29.02 20.82 29.41 20.47Q29.80 20.13 29.80 19.51L29.80 19.51Q29.80 18.18 28.44 18.15L28.44 18.15L26.67 18.15ZM26.67 14.66L26.67 17.06L28.13 17.06Q28.82 17.06 29.21 16.75Q29.60 16.43 29.60 15.86L29.60 15.86Q29.60 15.23 29.24 14.95Q28.88 14.66 28.12 14.66L28.12 14.66L26.67 14.66ZM35.32 19.42L35.32 19.42L36.80 19.42Q36.80 20.15 37.28 20.55Q37.76 20.95 38.66 20.95L38.66 20.95Q39.43 20.95 39.82 20.63Q40.21 20.32 40.21 19.80L40.21 19.80Q40.21 19.24 39.81 18.94Q39.42 18.63 38.39 18.32Q37.36 18.01 36.75 17.63L36.75 17.63Q35.58 16.90 35.58 15.72L35.58 15.72Q35.58 14.69 36.42 14.02Q37.26 13.35 38.60 13.35L38.60 13.35Q39.49 13.35 40.19 13.68Q40.89 14.01 41.29 14.61Q41.69 15.22 41.69 15.96L41.69 15.96L40.21 15.96Q40.21 15.29 39.79 14.91Q39.37 14.54 38.59 14.54L38.59 14.54Q37.87 14.54 37.46 14.85Q37.06 15.16 37.06 15.71L37.06 15.71Q37.06 16.18 37.50 16.50Q37.93 16.81 38.93 17.10Q39.92 17.40 40.53 17.78Q41.13 18.16 41.41 18.65Q41.69 19.13 41.69 19.79L41.69 19.79Q41.69 20.86 40.87 21.49Q40.06 22.12 38.66 22.12L38.66 22.12Q37.73 22.12 36.95 21.77Q36.18 21.43 35.75 20.83Q35.32 20.22 35.32 19.42ZM45.71 18.00L45.71 18.00L45.71 17.52Q45.71 16.28 46.15 15.32Q46.60 14.37 47.40 13.86Q48.21 13.35 49.25 13.35Q50.29 13.35 51.10 13.85Q51.90 14.35 52.34 15.29Q52.78 16.23 52.79 17.48L52.79 17.48L52.79 17.96Q52.79 19.21 52.36 20.16Q51.92 21.10 51.12 21.61Q50.31 22.12 49.26 22.12L49.26 22.12Q48.23 22.12 47.41 21.61Q46.60 21.10 46.16 20.17Q45.72 19.23 45.71 18.00ZM47.19 17.46L47.19 17.96Q47.19 19.36 47.74 20.13Q48.29 20.90 49.26 20.90L49.26 20.90Q50.25 20.90 50.78 20.15Q51.31 19.40 51.31 17.96L51.31 17.96L51.31 17.51Q51.31 16.09 50.77 15.34Q50.23 14.58 49.25 14.58L49.25 14.58Q48.29 14.58 47.75 15.33Q47.21 16.09 47.19 17.46L47.19 17.46ZM62.61 22L57.25 22L57.25 13.47L58.74 13.47L58.74 20.82L62.61 20.82L62.61 22ZM66.60 19.16L66.60 19.16L66.60 13.47L68.08 13.47L68.08 19.18Q68.08 20.03 68.51 20.48Q68.94 20.93 69.79 20.93L69.79 20.93Q71.50 20.93 71.50 19.13L71.50 19.13L71.50 13.47L72.97 13.47L72.97 19.17Q72.97 20.53 72.10 21.32Q71.23 22.12 69.79 22.12L69.79 22.12Q68.32 22.12 67.46 21.33Q66.60 20.55 66.60 19.16ZM79.23 14.66L76.59 14.66L76.59 13.47L83.36 13.47L83.36 14.66L80.70 14.66L80.70 22L79.23 22L79.23 14.66ZM92.69 22L87.11 22L87.11 13.47L92.65 13.47L92.65 14.66L88.60 14.66L88.60 17.02L92.10 17.02L92.10 18.19L88.60 18.19L88.60 20.82L92.69 20.82L92.69 22Z" fill="#FFFFFF"/><path class="svg__text" d="M121.75 22L119.42 22L119.42 13.60L121.37 13.60L125.08 18.07L125.08 13.60L127.41 13.60L127.41 22L125.46 22L121.75 17.52L121.75 22ZM139.32 22L132.57 22L132.57 13.60L139.16 13.60L139.16 15.44L134.93 15.44L134.93 16.85L138.66 16.85L138.66 18.63L134.93 18.63L134.93 20.17L139.32 20.17L139.32 22ZM146.50 22L144.12 22L144.12 13.60L147.96 13.60Q149.11 13.60 149.95 13.98Q150.78 14.35 151.24 15.06Q151.70 15.76 151.70 16.71L151.70 16.71Q151.70 17.62 151.27 18.30Q150.84 18.98 150.05 19.36L150.05 19.36L151.86 22L149.32 22L147.79 19.77L146.50 19.77L146.50 22ZM146.50 15.47L146.50 17.93L147.82 17.93Q148.55 17.93 148.92 17.61Q149.29 17.29 149.29 16.71L149.29 16.71Q149.29 16.12 148.92 15.79Q148.55 15.47 147.82 15.47L147.82 15.47L146.50 15.47ZM160.46 22L156.48 22L156.48 13.60L160.46 13.60Q161.84 13.60 162.91 14.12Q163.97 14.63 164.56 15.58Q165.15 16.53 165.15 17.80L165.15 17.80Q165.15 19.07 164.56 20.02Q163.97 20.97 162.91 21.48Q161.84 22 160.46 22L160.46 22ZM158.86 15.50L158.86 20.10L160.36 20.10Q161.44 20.10 162.09 19.49Q162.75 18.88 162.75 17.80L162.75 17.80Q162.75 16.72 162.09 16.11Q161.44 15.50 160.36 15.50L160.36 15.50L158.86 15.50Z" fill="#FFFFFF" x="118.22999999999999"/></svg>
