<svg xmlns="http://www.w3.org/2000/svg" width="282.21000000000004" height="35" viewBox="0 0 282.21000000000004 35"><rect class="svg__rect" x="0" y="0" width="127.25" height="35" fill="#5D9741"/><rect class="svg__rect" x="125.25" y="0" width="156.96000000000004" height="35" fill="#C1D72F"/><path class="svg__text" d="M15.70 22L14.22 22L14.22 13.47L17.48 13.47Q18.91 13.47 19.75 14.21Q20.59 14.96 20.59 16.18L20.59 16.18Q20.59 17.44 19.77 18.13Q18.95 18.83 17.46 18.83L17.46 18.83L15.70 18.83L15.70 22ZM15.70 14.66L15.70 17.64L17.48 17.64Q18.27 17.64 18.69 17.27Q19.10 16.90 19.10 16.19L19.10 16.19Q19.10 15.50 18.68 15.09Q18.26 14.68 17.52 14.66L17.52 14.66L15.70 14.66ZM24.61 18.00L24.61 18.00L24.61 17.52Q24.61 16.28 25.05 15.32Q25.49 14.37 26.30 13.86Q27.10 13.35 28.14 13.35Q29.19 13.35 29.99 13.85Q30.80 14.35 31.24 15.29Q31.68 16.23 31.68 17.48L31.68 17.48L31.68 17.96Q31.68 19.21 31.25 20.16Q30.82 21.10 30.01 21.61Q29.21 22.12 28.16 22.12L28.16 22.12Q27.12 22.12 26.31 21.61Q25.50 21.10 25.05 20.17Q24.61 19.23 24.61 18.00ZM26.09 17.46L26.09 17.96Q26.09 19.36 26.64 20.13Q27.18 20.90 28.16 20.90L28.16 20.90Q29.14 20.90 29.67 20.15Q30.20 19.40 30.20 17.96L30.20 17.96L30.20 17.51Q30.20 16.09 29.67 15.34Q29.13 14.58 28.14 14.58L28.14 14.58Q27.18 14.58 26.64 15.33Q26.10 16.09 26.09 17.46L26.09 17.46ZM37.53 22L35.56 13.47L37.03 13.47L38.36 19.88L39.99 13.47L41.23 13.47L42.84 19.89L44.15 13.47L45.62 13.47L43.65 22L42.24 22L40.61 15.77L38.96 22L37.53 22ZM55.27 22L49.70 22L49.70 13.47L55.23 13.47L55.23 14.66L51.18 14.66L51.18 17.02L54.68 17.02L54.68 18.19L51.18 18.19L51.18 20.82L55.27 20.82L55.27 22ZM60.95 22L59.47 22L59.47 13.47L62.47 13.47Q63.95 13.47 64.75 14.13Q65.55 14.79 65.55 16.05L65.55 16.05Q65.55 16.90 65.14 17.48Q64.72 18.06 63.99 18.37L63.99 18.37L65.90 21.92L65.90 22L64.31 22L62.60 18.71L60.95 18.71L60.95 22ZM60.95 14.66L60.95 17.52L62.48 17.52Q63.23 17.52 63.65 17.15Q64.07 16.77 64.07 16.11L64.07 16.11Q64.07 15.43 63.68 15.05Q63.29 14.68 62.52 14.66L62.52 14.66L60.95 14.66ZM75.52 22L69.95 22L69.95 13.47L75.48 13.47L75.48 14.66L71.43 14.66L71.43 17.02L74.93 17.02L74.93 18.19L71.43 18.19L71.43 20.82L75.52 20.82L75.52 22ZM82.17 22L79.72 22L79.72 13.47L82.24 13.47Q83.37 13.47 84.25 13.97Q85.12 14.48 85.60 15.40Q86.08 16.33 86.08 17.52L86.08 17.52L86.08 17.95Q86.08 19.16 85.60 20.08Q85.12 21.00 84.22 21.50Q83.33 22 82.17 22L82.17 22ZM81.20 14.66L81.20 20.82L82.17 20.82Q83.33 20.82 83.96 20.09Q84.58 19.36 84.59 17.99L84.59 17.99L84.59 17.52Q84.59 16.13 83.99 15.40Q83.39 14.66 82.24 14.66L82.24 14.66L81.20 14.66ZM99.64 22L96.52 22L96.52 13.47L99.45 13.47Q100.89 13.47 101.65 14.05Q102.41 14.63 102.41 15.78L102.41 15.78Q102.41 16.36 102.09 16.83Q101.77 17.30 101.16 17.56L101.16 17.56Q101.86 17.75 102.23 18.26Q102.61 18.78 102.61 19.51L102.61 19.51Q102.61 20.71 101.84 21.36Q101.07 22 99.64 22L99.64 22ZM98.01 18.15L98.01 20.82L99.65 20.82Q100.35 20.82 100.74 20.47Q101.14 20.13 101.14 19.51L101.14 19.51Q101.14 18.18 99.78 18.15L99.78 18.15L98.01 18.15ZM98.01 14.66L98.01 17.06L99.46 17.06Q100.15 17.06 100.54 16.75Q100.93 16.43 100.93 15.86L100.93 15.86Q100.93 15.23 100.57 14.95Q100.21 14.66 99.45 14.66L99.45 14.66L98.01 14.66ZM109.12 18.86L106.26 13.47L107.90 13.47L109.87 17.51L111.83 13.47L113.47 13.47L110.61 18.86L110.61 22L109.12 22L109.12 18.86Z" fill="#FFFFFF"/><path class="svg__text" d="M139.01 17.80L139.01 17.80Q139.01 16.54 139.61 15.54Q140.21 14.55 141.26 13.99Q142.31 13.43 143.63 13.43L143.63 13.43Q144.78 13.43 145.70 13.84Q146.63 14.25 147.24 15.02L147.24 15.02L145.73 16.39Q144.92 15.40 143.75 15.40L143.75 15.40Q143.06 15.40 142.53 15.70Q142.00 16 141.70 16.54Q141.41 17.09 141.41 17.80L141.41 17.80Q141.41 18.51 141.70 19.05Q142.00 19.60 142.53 19.90Q143.06 20.20 143.75 20.20L143.75 20.20Q144.92 20.20 145.73 19.22L145.73 19.22L147.24 20.58Q146.63 21.35 145.71 21.76Q144.78 22.17 143.63 22.17L143.63 22.17Q142.31 22.17 141.26 21.61Q140.21 21.05 139.61 20.05Q139.01 19.06 139.01 17.80ZM154.16 22L151.78 22L151.78 13.60L154.16 13.60L154.16 16.76L157.40 16.76L157.40 13.60L159.77 13.60L159.77 22L157.40 22L157.40 18.72L154.16 18.72L154.16 22ZM171.68 22L164.93 22L164.93 13.60L171.52 13.60L171.52 15.44L167.29 15.44L167.29 16.85L171.02 16.85L171.02 18.63L167.29 18.63L167.29 20.17L171.68 20.17L171.68 22ZM178.56 22L175.84 13.60L178.29 13.60L179.97 18.96L181.75 13.60L183.93 13.60L185.63 19.01L187.39 13.60L189.66 13.60L186.93 22L184.39 22L182.79 16.89L181.10 22L178.56 22ZM196.55 22L194.17 22L194.17 13.60L196.55 13.60L196.55 22ZM204.06 22L201.72 22L201.72 13.60L203.68 13.60L207.39 18.07L207.39 13.60L209.72 13.60L209.72 22L207.76 22L204.06 17.52L204.06 22ZM214.45 17.80L214.45 17.80Q214.45 16.54 215.05 15.54Q215.64 14.55 216.71 13.99Q217.78 13.43 219.13 13.43L219.13 13.43Q220.30 13.43 221.24 13.83Q222.18 14.22 222.80 14.97L222.80 14.97L221.29 16.33Q220.44 15.40 219.27 15.40L219.27 15.40Q219.25 15.40 219.25 15.40L219.25 15.40Q218.17 15.40 217.51 16.06Q216.85 16.71 216.85 17.80L216.85 17.80Q216.85 18.50 217.15 19.04Q217.45 19.59 217.99 19.89Q218.53 20.20 219.22 20.20L219.22 20.20Q219.91 20.20 220.51 19.93L220.51 19.93L220.51 17.62L222.61 17.62L222.61 21.10Q221.89 21.61 220.95 21.89Q220.02 22.17 219.08 22.17L219.08 22.17Q217.76 22.17 216.70 21.61Q215.64 21.05 215.05 20.05Q214.45 19.06 214.45 17.80ZM234.14 17.80L234.14 17.80Q234.14 16.54 234.74 15.54Q235.34 14.55 236.41 13.99Q237.48 13.43 238.82 13.43L238.82 13.43Q240.00 13.43 240.93 13.83Q241.87 14.22 242.49 14.97L242.49 14.97L240.98 16.33Q240.14 15.40 238.96 15.40L238.96 15.40Q238.95 15.40 238.94 15.40L238.94 15.40Q237.86 15.40 237.20 16.06Q236.54 16.71 236.54 17.80L236.54 17.80Q236.54 18.50 236.84 19.04Q237.14 19.59 237.68 19.89Q238.22 20.20 238.92 20.20L238.92 20.20Q239.60 20.20 240.20 19.93L240.20 19.93L240.20 17.62L242.30 17.62L242.30 21.10Q241.58 21.61 240.64 21.89Q239.71 22.17 238.77 22.17L238.77 22.17Q237.45 22.17 236.40 21.61Q235.34 21.05 234.74 20.05Q234.14 19.06 234.14 17.80ZM247.22 18.26L247.22 18.26L247.22 13.60L249.60 13.60L249.60 18.19Q249.60 20.20 251.19 20.20L251.19 20.20Q252.78 20.20 252.78 18.19L252.78 18.19L252.78 13.60L255.12 13.60L255.12 18.26Q255.12 20.13 254.08 21.15Q253.04 22.17 251.17 22.17L251.17 22.17Q249.30 22.17 248.26 21.15Q247.22 20.13 247.22 18.26ZM262.40 22L260.21 22L260.21 13.60L262.16 13.60L265.12 18.45L268.00 13.60L269.95 13.60L269.97 22L267.79 22L267.77 17.55L265.61 21.17L264.55 21.17L262.40 17.67L262.40 22Z" fill="#FFFFFF" x="138.25"/></svg>
